<svg xmlns="http://www.w3.org/2000/svg" viewBox="0 0 24 24" fill="#6366f1">
  <path d="M17.81 4.47c-.08 0-.16-.02-.23-.06C15.66 3.42 14 3 12.01 3c-1.98 0-3.86.47-5.57 1.41-.24.13-.54.04-.67-.2-.13-.24-.04-.55.2-.68C7.82 2.52 9.86 2 12.01 2c2.13 0 3.99.47 6.03 1.53.24.13.33.43.2.67-.09.17-.26.27-.43.27zm4.14 4.24c-.05 0-.09-.01-.14-.02-2.13-.6-4.42-.91-6.8-.91-2.38 0-4.67.31-6.8.91-.25.07-.52-.07-.59-.33-.07-.25.07-.52.33-.59 2.21-.62 4.57-.95 7.06-.95 2.49 0 4.85.33 7.06.95.25.07.4.34.33.59-.06.21-.25.35-.45.35zM21.18 12c-.1 0-.21-.03-.3-.08-1.55-.82-2.3-1.17-3.71-1.17-1.42 0-2.17.35-3.71 1.17-.23.12-.52.03-.65-.2-.13-.23-.04-.53.2-.65 1.67-.88 2.53-1.28 4.16-1.28 1.64 0 2.49.4 4.16 1.28.24.12.33.42.2.65-.08.14-.23.23-.35.23zM10.15 15.67c-.07 0-.13-.02-.19-.05-1.19-.57-1.76-.84-2.88-.84-1.12 0-1.69.27-2.88.84-.23.11-.51.02-.63-.21-.12-.23-.02-.51.21-.63 1.34-.64 2.1-.98 3.3-.98s1.96.34 3.3.98c.23.12.33.4.21.63-.09.17-.26.26-.44.26zm10.51 3.52c-.11 0-.22-.04-.31-.13-.7-.66-1.07-1.02-2.02-1.02-.96 0-1.32.36-2.02 1.02-.18.17-.46.17-.64 0-.18-.18-.18-.46 0-.64.82-.78 1.37-1.3 2.66-1.3 1.29 0 1.84.52 2.66 1.3.18.18.18.46 0 .64-.09.09-.21.13-.33.13zm-13.34-.14c-.13 0-.27-.05-.38-.16-1.11-1.11-1.89-1.48-3.13-1.48s-2.02.37-3.13 1.48c-.19.19-.51.19-.7-.01-.19-.19-.19-.51-.01-.7 1.3-1.3 2.31-1.7 3.84-1.7s2.54.4 3.84 1.7c.19.19.19.51-.01.7-.1.1-.23.17-.38.17z"/>
</svg>
